# xmcd
# 
# Track frame offsets:
#     150
#     17525
#     34741
#     58633
#     81013
#     105356
#     122970
#     143146
#     171922
#     188232
#     205597
#     229573
#     244947
#     266392
#     281824
#     307636
# 
# Disc length: 4376
# 
# Revision: 1
# Processed by: cddbd v1.5.2PL0 Copyright (c) Steve Scherf et al.
# Submitted via: fre:ac v1.0.27
# 
DISCID=ce111610
DTITLE=Artistes variés - 75 ans 75 chansons 1980 - 2000 [CD 4)
DYEAR=2011
DGENRE=Compilation
TTITLE0=Ils s'aiment (Daniel Lavoie)
TTITLE1=Quand on est en amour (Patrick Norman)
TTITLE2=Doux (Marjo)
TTITLE3=Si j'étais un homme (Diane Tell)
TTITLE4=Oxygène (Diane Dufresne)
TTITLE5=Journée d'Amérique (Richard Séguin)
TTITLE6=Je voudrais voir la mer (Michel Rivard)
TTITLE7=Tu m'aimes-tu (Richard Desjardins)
TTITLE8=Si fragile (Luc De Larochellière)
TTITLE9=L'amour existe encore (Céline Dion)
TTITLE10=La ballade de Jean Batailleur (Zachary Richard)
TTITLE11=Sèche tes pleurs (Daniel Bélanger)
TTITLE12=La rue principale (Les Colocs)
TTITLE13=Je t'oublierai, je t'oublierai (Isabelle Boulay)
TTITLE14=Seigneur (Kevin Parent)
TTITLE15=1990 (Jean Leloup)
EXTD=
EXTT0=
EXTT1=
EXTT2=
EXTT3=
EXTT4=
EXTT5=
EXTT6=
EXTT7=
EXTT8=
EXTT9=
EXTT10=
EXTT11=
EXTT12=
EXTT13=
EXTT14=
EXTT15=
PLAYORDER=
